# Made in Blockbench 4.10.4
mtllib Elevator.mtl

o Wall1
v 0.5 2.5 0.5
v 0.5 2.5 0.375
v 0.5 0 0.5
v 0.5 0 0.375
v -0.5 2.5 0.375
v -0.5 2.5 0.5
v -0.5 0 0.375
v -0.5 0 0.5
vt 0 1
vt 0.125 1
vt 0.125 0.6875
vt 0 0.6875
vt 0.40625 0.5546875
vt 0.421875 0.5546875
vt 0.421875 0.2421875
vt 0.40625 0.2421875
vt 0.125 1
vt 0.25 1
vt 0.25 0.6875
vt 0.125 0.6875
vt 0.421875 0.5546875
vt 0.4375 0.5546875
vt 0.4375 0.2421875
vt 0.421875 0.2421875
vt 0.59375 0.984375
vt 0.46875 0.984375
vt 0.46875 1
vt 0.59375 1
vt 0.59375 0.984375
vt 0.46875 0.984375
vt 0.46875 0.96875
vt 0.59375 0.96875
vn 0 0 -1
vn 1 0 0
vn 0 0 1
vn -1 0 0
vn 0 1 0
vn 0 -1 0
usemtl m_bddfb85f-6033-c99b-1f69-c0985875a07e
f 4/4/1 7/3/1 5/2/1 2/1/1
f 3/8/2 4/7/2 2/6/2 1/5/2
f 8/12/3 3/11/3 1/10/3 6/9/3
f 7/16/4 8/15/4 6/14/4 5/13/4
f 6/20/5 1/19/5 2/18/5 5/17/5
f 7/24/6 4/23/6 3/22/6 8/21/6
o Wall1
v 0.5 2.5 -0.375
v 0.5 2.5 -0.5
v 0.5 0 -0.375
v 0.5 0 -0.5
v -0.5 2.5 -0.5
v -0.5 2.5 -0.375
v -0.5 0 -0.5
v -0.5 0 -0.375
vt 0.25 1
vt 0.375 1
vt 0.375 0.6875
vt 0.25 0.6875
vt 0.4375 0.5546875
vt 0.453125 0.5546875
vt 0.453125 0.2421875
vt 0.4375 0.2421875
vt 0 0.6875
vt 0.125 0.6875
vt 0.125 0.375
vt 0 0.375
vt 0.453125 0.5546875
vt 0.46875 0.5546875
vt 0.46875 0.2421875
vt 0.453125 0.2421875
vt 0.59375 0.953125
vt 0.46875 0.953125
vt 0.46875 0.96875
vt 0.59375 0.96875
vt 0.59375 0.953125
vt 0.46875 0.953125
vt 0.46875 0.9375
vt 0.59375 0.9375
vn 0 0 -1
vn 1 0 0
vn 0 0 1
vn -1 0 0
vn 0 1 0
vn 0 -1 0
usemtl m_bddfb85f-6033-c99b-1f69-c0985875a07e
f 12/28/7 15/27/7 13/26/7 10/25/7
f 11/32/8 12/31/8 10/30/8 9/29/8
f 16/36/9 11/35/9 9/34/9 14/33/9
f 15/40/10 16/39/10 14/38/10 13/37/10
f 14/44/11 9/43/11 10/42/11 13/41/11
f 15/48/12 12/47/12 11/46/12 16/45/12
o Wall1
v 0.5 2.5 0.375
v 0.5 2.5 -0.375
v 0.5 0 0.375
v 0.5 0 -0.375
v 0.375 2.5 -0.375
v 0.375 2.5 0.375
v 0.375 0 -0.375
v 0.375 0 0.375
vt 0.125 0.6875
vt 0.21875 0.6875
vt 0.21875 0.375
vt 0.125 0.375
vt 0.21875 0.6875
vt 0.3125 0.6875
vt 0.3125 0.375
vt 0.21875 0.375
vt 0.484375 0.4609375
vt 0.46875 0.4609375
vt 0.46875 0.5546875
vt 0.484375 0.5546875
vt 0.5 0.5546875
vt 0.484375 0.5546875
vt 0.484375 0.4609375
vt 0.5 0.4609375
vn 1 0 0
vn -1 0 0
vn 0 1 0
vn 0 -1 0
usemtl m_bddfb85f-6033-c99b-1f69-c0985875a07e
f 19/52/13 20/51/13 18/50/13 17/49/13
f 23/56/14 24/55/14 22/54/14 21/53/14
f 22/60/15 17/59/15 18/58/15 21/57/15
f 23/64/16 20/63/16 19/62/16 24/61/16
o Wall1
v -0.375 0.4375 -0.125
v -0.375 0.4375 -0.375
v -0.375 0 -0.125
v -0.375 0 -0.375
v -0.5 0.4375 -0.375
v -0.5 0.4375 -0.125
v -0.5 0 -0.375
v -0.5 0 -0.125
vt 0.375 0.7421875
vt 0.40625 0.7421875
vt 0.40625 0.6875
vt 0.375 0.6875
vt 0.5 0.75
vt 0.515625 0.75
vt 0.515625 0.6953125
vt 0.5 0.6953125
vt 0.46875 0.9375
vt 0.5 0.9375
vt 0.5 0.8828125
vt 0.46875 0.8828125
vt 0.484375 0.7734375
vt 0.46875 0.7734375
vt 0.46875 0.7421875
vt 0.484375 0.7421875
vn 1 0 0
vn 0 0 1
vn -1 0 0
vn 0 -1 0
usemtl m_bddfb85f-6033-c99b-1f69-c0985875a07e
f 27/68/17 28/67/17 26/66/17 25/65/17
f 32/72/18 27/71/18 25/70/18 30/69/18
f 31/76/19 32/75/19 30/74/19 29/73/19
f 31/80/20 28/79/20 27/78/20 32/77/20
o Ceiling
v 0.375 2.5 0.375
v 0.375 2.5 -0.375
v 0.375 0.8125 0.375
v 0.375 0.8125 -0.375
v -0.375 2.5 -0.375
v -0.375 2.5 0.375
v -0.375 0.8125 -0.375
v -0.375 0.8125 0.375
vt 0.5 0.6484375
vt 0.40625 0.6484375
vt 0.40625 0.7421875
vt 0.5 0.7421875
vt 0.5 0.6484375
vt 0.40625 0.6484375
vt 0.40625 0.5546875
vt 0.5 0.5546875
vn 0 1 0
vn 0 -1 0
usemtl m_bddfb85f-6033-c99b-1f69-c0985875a07e
f 38/84/21 33/83/21 34/82/21 37/81/21
f 39/88/22 36/87/22 35/86/22 40/85/22
o Wall1
v -0.375 0.4375 0.375
v -0.375 0.4375 0.125
v -0.375 0 0.375
v -0.375 0 0.125
v -0.5 0.4375 0.125
v -0.5 0.4375 0.375
v -0.5 0 0.125
v -0.5 0 0.375
vt 0.5 0.6953125
vt 0.515625 0.6953125
vt 0.515625 0.640625
vt 0.5 0.640625
vt 0.46875 0.8828125
vt 0.5 0.8828125
vt 0.5 0.828125
vt 0.46875 0.828125
vt 0.46875 0.828125
vt 0.5 0.828125
vt 0.5 0.7734375
vt 0.46875 0.7734375
vt 0.5 0.7734375
vt 0.484375 0.7734375
vt 0.484375 0.7421875
vt 0.5 0.7421875
vn 0 0 -1
vn 1 0 0
vn -1 0 0
vn 0 -1 0
usemtl m_bddfb85f-6033-c99b-1f69-c0985875a07e
f 44/92/23 47/91/23 45/90/23 42/89/23
f 43/96/24 44/95/24 42/94/24 41/93/24
f 47/100/25 48/99/25 46/98/25 45/97/25
f 47/104/26 44/103/26 43/102/26 48/101/26
o Wall1
v -0.375 2.5 0.375
v -0.375 2.5 -0.375
v -0.375 0.4375 0.375
v -0.375 0.4375 -0.375
v -0.5 2.5 -0.375
v -0.5 2.5 0.375
v -0.5 0.4375 -0.375
v -0.5 0.4375 0.375
vt 0.3125 0.6875
vt 0.40625 0.6875
vt 0.40625 0.4296875
vt 0.3125 0.4296875
vt 0.375 1
vt 0.46875 1
vt 0.46875 0.7421875
vt 0.375 0.7421875
vt 0.515625 0.84375
vt 0.5 0.84375
vt 0.5 0.9375
vt 0.515625 0.9375
vt 0.515625 0.84375
vt 0.5 0.84375
vt 0.5 0.75
vt 0.515625 0.75
vn 1 0 0
vn -1 0 0
vn 0 1 0
vn 0 -1 0
usemtl m_bddfb85f-6033-c99b-1f69-c0985875a07e
f 51/108/27 52/107/27 50/106/27 49/105/27
f 55/112/28 56/111/28 54/110/28 53/109/28
f 54/116/29 49/115/29 50/114/29 53/113/29
f 55/120/30 52/119/30 51/118/30 56/117/30