# Made in Blockbench 4.10.4
mtllib Small Turret.mtl

o cuboid
v 0.15625 0.3125 0.15625
v 0.15625 0.3125 -0.15625
v 0.15625 0 0.15625
v 0.15625 0 -0.15625
v -0.15625 0.3125 0.15625
v -0.15625 0.3125 -0.15625
v -0.15625 0 0.15625
v -0.15625 0 -0.15625
v -0.15625 0.0625 0.15625
v 0.15625 0.0625 0.15625
v 0.15625 0.0625 -0.15625
v -0.15625 0.0625 -0.15625
v 0.15625 0.25 0.15625
v -0.15625 0.25 0.15625
v -0.15625 0.25 -0.15625
v 0.15625 0.25 -0.15625
v -0.09375 0.25 0.15625
v -0.09375 0.0625 0.15625
v -0.09375 0 0.15625
v -0.09375 0 -0.15625
v -0.09375 0.0625 -0.15625
v -0.09375 0.25 -0.15625
v -0.09375 0.3125 -0.15625
v -0.09375 0.3125 0.15625
v 0.09375 0.0625 0.15625
v 0.09375 0.25 0.15625
v 0.09375 0.3125 0.15625
v 0.09375 0.3125 -0.15625
v 0.09375 0.25 -0.15625
v 0.09375 0.0625 -0.15625
v 0.09375 0 -0.15625
v 0.09375 0 0.15625
v -0.09375 0.0625 0.09375
v 0.09375 0.0625 0.09375
v 0.09375 0.25 0.09375
v -0.09375 0.25 0.09375
vt 0.15625 0.84375
vt 0.15625 0.875
vt 0 0.875
vt 0 0.84375
vt 0.15625 0.65625
vt 0.15625 0.6875
vt 0 0.6875
vt 0 0.65625
vt 0.1875 0.84375
vt 0.21875 0.84375
vt 0.21875 1
vt 0.1875 1
vt 0.1875 0.65625
vt 0.21875 0.65625
vt 0.21875 0.8125
vt 0.1875 0.8125
vt 0 0.46875
vt 0.03125 0.46875
vt 0.03125 0.5
vt 0 0.5
vt 0.53125 0.875
vt 0.5 0.875
vt 0.5 0.84375
vt 0.53125 0.84375
vt 0 0.59375
vt 0.03125 0.59375
vt 0.03125 0.625
vt 0 0.625
vt 0 1
vt 0 0.96875
vt 0.15625 0.96875
vt 0.15625 1
vt 0.53125 1
vt 0.5 1
vt 0.5 0.96875
vt 0.53125 0.96875
vt 0 0.8125
vt 0 0.78125
vt 0.15625 0.78125
vt 0.15625 0.8125
vt 0 0.5
vt 0.03125 0.5
vt 0.03125 0.59375
vt 0 0.59375
vt 0.15625 0.6875
vt 0.15625 0.78125
vt 0 0.78125
vt 0 0.6875
vt 0.53125 0.96875
vt 0.5 0.96875
vt 0.5 0.875
vt 0.53125 0.875
vt 0.15625 0.875
vt 0.15625 0.96875
vt 0 0.96875
vt 0 0.875
vt 0.15625 0.59375
vt 0.125 0.59375
vt 0.125 0.5
vt 0.15625 0.5
vt 0.15625 0.5
vt 0.125 0.5
vt 0.125 0.46875
vt 0.15625 0.46875
vt 0.34375 0.8125
vt 0.3125 0.8125
vt 0.3125 0.65625
vt 0.34375 0.65625
vt 0.375 0.84375
vt 0.40625 0.84375
vt 0.40625 0.875
vt 0.375 0.875
vt 0.375 0.875
vt 0.40625 0.875
vt 0.40625 0.96875
vt 0.375 0.96875
vt 0.375 0.96875
vt 0.40625 0.96875
vt 0.40625 1
vt 0.375 1
vt 0.34375 1
vt 0.3125 1
vt 0.3125 0.84375
vt 0.34375 0.84375
vt 0.15625 0.625
vt 0.125 0.625
vt 0.125 0.59375
vt 0.15625 0.59375
vt 0.1875 0.53125
vt 0.28125 0.53125
vt 0.28125 0.625
vt 0.1875 0.625
vt 0.03125 0.59375
vt 0.125 0.59375
vt 0.125 0.625
vt 0.03125 0.625
vt 0.21875 0.84375
vt 0.3125 0.84375
vt 0.3125 1
vt 0.21875 1
vt 0.5 1
vt 0.40625 1
vt 0.40625 0.96875
vt 0.5 0.96875
vt 0.5 0.96875
vt 0.40625 0.96875
vt 0.40625 0.875
vt 0.5 0.875
vt 0.5 0.875
vt 0.40625 0.875
vt 0.40625 0.84375
vt 0.5 0.84375
vt 0.21875 0.65625
vt 0.3125 0.65625
vt 0.3125 0.8125
vt 0.21875 0.8125
vt 0.03125 0.46875
vt 0.125 0.46875
vt 0.125 0.5
vt 0.03125 0.5
vt 0.40625 0.625
vt 0.3125 0.625
vt 0.3125 0.59375
vt 0.40625 0.59375
vt 0.3125 0.5625
vt 0.3125 0.46875
vt 0.34375 0.46875
vt 0.34375 0.5625
vt 0.375 0.53125
vt 0.46875 0.53125
vt 0.46875 0.5625
vt 0.375 0.5625
vt 0.5 0.71875
vt 0.5 0.8125
vt 0.46875 0.8125
vt 0.46875 0.71875
vn 1 0 0
vn -1 0 0
vn 0 1 0
vn 0 -1 0
vn 0 0 1
vn 0 0 -1
vn 0 0 1
vn 1 0 0
vn 0 0 -1
vn -1 0 0
vn 0 0 1
vn -1 0 0
vn 0 0 -1
vn 1 0 0
vn 0 0 1
vn 0 0 1
vn 0 -1 0
vn 0 0 -1
vn 0 0 -1
vn 0 0 -1
vn 0 1 0
vn 0 0 1
vn 0 0 1
vn 0 0 1
vn 0 1 0
vn 0 0 -1
vn 0 0 -1
vn 0 0 -1
vn 0 -1 0
vn 0 0 1
vn 0 1 0
vn -1 0 0
vn 0 -1 0
vn 1 0 0
usemtl m_ed3420a4-5e10-1204-5078-09f124821511
f 4/1/1 11/2/1 10/3/1 3/4/1
f 7/5/2 9/6/2 12/7/2 8/8/2
f 5/9/3 24/10/3 23/11/3 6/12/3
f 8/13/4 20/14/4 19/15/4 7/16/4
f 7/17/5 19/18/5 18/19/5 9/20/5
f 12/21/6 21/22/6 20/23/6 8/24/6
f 14/25/7 17/26/7 24/27/7 5/28/7
f 1/29/8 13/30/8 16/31/8 2/32/8
f 6/33/9 23/34/9 22/35/9 15/36/9
f 6/37/10 15/38/10 14/39/10 5/40/10
f 9/41/11 18/42/11 17/43/11 14/44/11
f 9/45/12 14/46/12 15/47/12 12/48/12
f 15/49/13 22/50/13 21/51/13 12/52/13
f 11/53/14 16/54/14 13/55/14 10/56/14
f 13/57/15 26/58/15 25/59/15 10/60/15
f 10/61/16 25/62/16 32/63/16 3/64/16
f 3/65/17 32/66/17 31/67/17 4/68/17
f 4/69/18 31/70/18 30/71/18 11/72/18
f 11/73/19 30/74/19 29/75/19 16/76/19
f 16/77/20 29/78/20 28/79/20 2/80/20
f 2/81/21 28/82/21 27/83/21 1/84/21
f 1/85/22 27/86/22 26/87/22 13/88/22
f 33/89/23 34/90/23 35/91/23 36/92/23
f 17/93/24 26/94/24 27/95/24 24/96/24
f 24/97/25 27/98/25 28/99/25 23/100/25
f 23/101/26 28/102/26 29/103/26 22/104/26
f 22/105/27 29/106/27 30/107/27 21/108/27
f 21/109/28 30/110/28 31/111/28 20/112/28
f 20/113/29 31/114/29 32/115/29 19/116/29
f 19/117/30 32/118/30 25/119/30 18/120/30
f 34/121/31 33/122/31 18/123/31 25/124/31
f 35/125/32 34/126/32 25/127/32 26/128/32
f 36/129/33 35/130/33 26/131/33 17/132/33
f 33/133/34 36/134/34 17/135/34 18/136/34
o cube
v 0.1875 0.1875 0.03125
v 0.1875 0.1875 -0.03125
v 0.1875 0.125 0.03125
v 0.1875 0.125 -0.03125
v 0.15625 0.1875 -0.03125
v 0.15625 0.1875 0.03125
v 0.15625 0.125 -0.03125
v 0.15625 0.125 0.03125
vt 0 0.4375
vt 0.03125 0.4375
vt 0.03125 0.40625
vt 0 0.40625
vt 0.5625 1
vt 0.59375 1
vt 0.59375 0.96875
vt 0.5625 0.96875
vt 0.0625 0.4375
vt 0.09375 0.4375
vt 0.09375 0.40625
vt 0.0625 0.40625
vt 0.5625 0.9375
vt 0.59375 0.9375
vt 0.59375 0.90625
vt 0.5625 0.90625
vt 0.15625 0.40625
vt 0.125 0.40625
vt 0.125 0.4375
vt 0.15625 0.4375
vt 0.59375 0.875
vt 0.5625 0.875
vt 0.5625 0.84375
vt 0.59375 0.84375
vn 0 0 -1
vn 1 0 0
vn 0 0 1
vn -1 0 0
vn 0 1 0
vn 0 -1 0
usemtl m_ed3420a4-5e10-1204-5078-09f124821511
f 40/140/35 43/139/35 41/138/35 38/137/35
f 39/144/36 40/143/36 38/142/36 37/141/36
f 44/148/37 39/147/37 37/146/37 42/145/37
f 43/152/38 44/151/38 42/150/38 41/149/38
f 42/156/39 37/155/39 38/154/39 41/153/39
f 43/160/40 40/159/40 39/158/40 44/157/40
o cube
v 0.25 0.21875 0.0625
v 0.25 0.21875 -0.0625
v 0.25 0.09375 0.0625
v 0.25 0.09375 -0.0625
v 0.1875 0.21875 -0.0625
v 0.1875 0.21875 0.0625
v 0.1875 0.09375 -0.0625
v 0.1875 0.09375 0.0625
vt 0.375 0.5
vt 0.40625 0.5
vt 0.40625 0.4375
vt 0.375 0.4375
vt 0.375 0.8125
vt 0.4375 0.8125
vt 0.4375 0.75
vt 0.375 0.75
vt 0.4375 0.5
vt 0.46875 0.5
vt 0.46875 0.4375
vt 0.4375 0.4375
vt 0.375 0.71875
vt 0.4375 0.71875
vt 0.4375 0.65625
vt 0.375 0.65625
vt 0.53125 0.5
vt 0.5 0.5
vt 0.5 0.5625
vt 0.53125 0.5625
vt 0.5625 0.8125
vt 0.53125 0.8125
vt 0.53125 0.75
vt 0.5625 0.75
vn 0 0 -1
vn 1 0 0
vn 0 0 1
vn -1 0 0
vn 0 1 0
vn 0 -1 0
usemtl m_ed3420a4-5e10-1204-5078-09f124821511
f 48/164/41 51/163/41 49/162/41 46/161/41
f 47/168/42 48/167/42 46/166/42 45/165/42
f 52/172/43 47/171/43 45/170/43 50/169/43
f 51/176/44 52/175/44 50/174/44 49/173/44
f 50/180/45 45/179/45 46/178/45 49/177/45
f 51/184/46 48/183/46 47/182/46 52/181/46
o cube
v 0.234375 0.171875 0.1875
v 0.234375 0.171875 0.0625
v 0.234375 0.140625 0.1875
v 0.234375 0.140625 0.0625
v 0.203125 0.171875 0.0625
v 0.203125 0.171875 0.1875
v 0.203125 0.140625 0.0625
v 0.203125 0.140625 0.1875
vt 0.53125 0.625
vt 0.5625 0.625
vt 0.5625 0.59375
vt 0.53125 0.59375
vt 0.4375 0.625
vt 0.5 0.625
vt 0.5 0.59375
vt 0.4375 0.59375
vt 0.5 0.46875
vt 0.53125 0.46875
vt 0.53125 0.4375
vt 0.5 0.4375
vt 0.46875 0.6875
vt 0.53125 0.6875
vt 0.53125 0.65625
vt 0.46875 0.65625
vt 0.21875 0.4375
vt 0.1875 0.4375
vt 0.1875 0.5
vt 0.21875 0.5
vt 0.28125 0.5
vt 0.25 0.5
vt 0.25 0.4375
vt 0.28125 0.4375
vn 0 0 -1
vn 1 0 0
vn 0 0 1
vn -1 0 0
vn 0 1 0
vn 0 -1 0
usemtl m_ed3420a4-5e10-1204-5078-09f124821511
f 56/188/47 59/187/47 57/186/47 54/185/47
f 55/192/48 56/191/48 54/190/48 53/189/48
f 60/196/49 55/195/49 53/194/49 58/193/49
f 59/200/50 60/199/50 58/198/50 57/197/50
f 58/204/51 53/203/51 54/202/51 57/201/51
f 59/208/52 56/207/52 55/206/52 60/205/52