# Made in Blockbench 4.10.4
mtllib Target.mtl

o middle
v 0.1875 0.0625 0.1875
v 0.1875 0.0625 -0.1875
v 0.1875 0 0.1875
v 0.1875 0 -0.1875
v -0.1875 0.0625 -0.1875
v -0.1875 0.0625 0.1875
v -0.1875 0 -0.1875
v -0.1875 0 0.1875
vt 0.375 0.625
vt 0 0.625
vt 0 1
vt 0.375 1
vt 0.375 0.625
vt 0 0.625
vt 0 0.25
vt 0.375 0.25
vn 0 1 0
vn 0 -1 0
usemtl m_ac27a0c6-363d-9d17-5515-aed1cf1bffc6
f 6/4/1 1/3/1 2/2/1 5/1/1
f 7/8/2 4/7/2 3/6/2 8/5/2
o Long 4
v 0.1875 0.0625 0.25
v 0.1875 0.0625 0.1875
v 0.1875 0 0.25
v 0.1875 0 0.1875
v -0.1875 0.0625 0.1875
v -0.1875 0.0625 0.25
v -0.1875 0 0.1875
v -0.1875 0 0.25
vt 0.3125 0.25
vt 0.375 0.25
vt 0.375 0.1875
vt 0.3125 0.1875
vt 0.375 1
vt 0.75 1
vt 0.75 0.9375
vt 0.375 0.9375
vt 0.75 0.625
vt 0.8125 0.625
vt 0.8125 0.5625
vt 0.75 0.5625
vt 0.75 0.875
vt 0.375 0.875
vt 0.375 0.9375
vt 0.75 0.9375
vt 0.75 0.875
vt 0.375 0.875
vt 0.375 0.8125
vt 0.75 0.8125
vn 1 0 0
vn 0 0 1
vn -1 0 0
vn 0 1 0
vn 0 -1 0
usemtl m_ac27a0c6-363d-9d17-5515-aed1cf1bffc6
f 11/12/3 12/11/3 10/10/3 9/9/3
f 16/16/4 11/15/4 9/14/4 14/13/4
f 15/20/5 16/19/5 14/18/5 13/17/5
f 14/24/6 9/23/6 10/22/6 13/21/6
f 15/28/7 12/27/7 11/26/7 16/25/7
o Long 3
v 0.1875 0.0625 -0.1875
v 0.1875 0.0625 -0.25
v 0.1875 0 -0.1875
v 0.1875 0 -0.25
v -0.1875 0.0625 -0.25
v -0.1875 0.0625 -0.1875
v -0.1875 0 -0.25
v -0.1875 0 -0.1875
vt 0.375 0.8125
vt 0.75 0.8125
vt 0.75 0.75
vt 0.375 0.75
vt 0.75 0.5
vt 0.8125 0.5
vt 0.8125 0.4375
vt 0.75 0.4375
vt 0.75 0.4375
vt 0.8125 0.4375
vt 0.8125 0.375
vt 0.75 0.375
vt 0.75 0.6875
vt 0.375 0.6875
vt 0.375 0.75
vt 0.75 0.75
vt 0.75 0.6875
vt 0.375 0.6875
vt 0.375 0.625
vt 0.75 0.625
vn 0 0 -1
vn 1 0 0
vn -1 0 0
vn 0 1 0
vn 0 -1 0
usemtl m_ac27a0c6-363d-9d17-5515-aed1cf1bffc6
f 20/32/8 23/31/8 21/30/8 18/29/8
f 19/36/9 20/35/9 18/34/9 17/33/9
f 23/40/10 24/39/10 22/38/10 21/37/10
f 22/44/11 17/43/11 18/42/11 21/41/11
f 23/48/12 20/47/12 19/46/12 24/45/12
o Long 2
v -0.1875 0.0625 0.1875
v -0.1875 0.0625 -0.1875
v -0.1875 0 0.1875
v -0.1875 0 -0.1875
v -0.25 0.0625 -0.1875
v -0.25 0.0625 0.1875
v -0.25 0 -0.1875
v -0.25 0 0.1875
vt 0.625 0.25
vt 0.6875 0.25
vt 0.6875 0.1875
vt 0.625 0.1875
vt 0.75 0.375
vt 0.8125 0.375
vt 0.8125 0.3125
vt 0.75 0.3125
vt 0.375 0.625
vt 0.75 0.625
vt 0.75 0.5625
vt 0.375 0.5625
vt 0.4375 0.1875
vt 0.375 0.1875
vt 0.375 0.5625
vt 0.4375 0.5625
vt 0.5 0.5625
vt 0.4375 0.5625
vt 0.4375 0.1875
vt 0.5 0.1875
vn 0 0 -1
vn 0 0 1
vn -1 0 0
vn 0 1 0
vn 0 -1 0
usemtl m_ac27a0c6-363d-9d17-5515-aed1cf1bffc6
f 28/52/13 31/51/13 29/50/13 26/49/13
f 32/56/14 27/55/14 25/54/14 30/53/14
f 31/60/15 32/59/15 30/58/15 29/57/15
f 30/64/16 25/63/16 26/62/16 29/61/16
f 31/68/17 28/67/17 27/66/17 32/65/17
o Long 1
v 0.25 0.0625 0.1875
v 0.25 0.0625 -0.1875
v 0.25 0 0.1875
v 0.25 0 -0.1875
v 0.1875 0.0625 -0.1875
v 0.1875 0.0625 0.1875
v 0.1875 0 -0.1875
v 0.1875 0 0.1875
vt 0.6875 0.25
vt 0.75 0.25
vt 0.75 0.1875
vt 0.6875 0.1875
vt 0.5 0.5625
vt 0.875 0.5625
vt 0.875 0.5
vt 0.5 0.5
vt 0.75 0.3125
vt 0.8125 0.3125
vt 0.8125 0.25
vt 0.75 0.25
vt 0.5625 0.125
vt 0.5 0.125
vt 0.5 0.5
vt 0.5625 0.5
vt 0.625 0.5
vt 0.5625 0.5
vt 0.5625 0.125
vt 0.625 0.125
vn 0 0 -1
vn 1 0 0
vn 0 0 1
vn 0 1 0
vn 0 -1 0
usemtl m_ac27a0c6-363d-9d17-5515-aed1cf1bffc6
f 36/72/18 39/71/18 37/70/18 34/69/18
f 35/76/19 36/75/19 34/74/19 33/73/19
f 40/80/20 35/79/20 33/78/20 38/77/20
f 38/84/21 33/83/21 34/82/21 37/81/21
f 39/88/22 36/87/22 35/86/22 40/85/22
o Short 1
v 0.3125 0.0625 0.0625
v 0.3125 0.0625 -0.0625
v 0.3125 0 0.0625
v 0.3125 0 -0.0625
v 0.25 0.0625 -0.0625
v 0.25 0.0625 0.0625
v 0.25 0 -0.0625
v 0.25 0 0.0625
vt 0.75 0.25
vt 0.8125 0.25
vt 0.8125 0.1875
vt 0.75 0.1875
vt 0.625 0.5
vt 0.75 0.5
vt 0.75 0.4375
vt 0.625 0.4375
vt 0.8125 1
vt 0.875 1
vt 0.875 0.9375
vt 0.8125 0.9375
vt 0.6875 0.3125
vt 0.625 0.3125
vt 0.625 0.4375
vt 0.6875 0.4375
vt 0.75 0.4375
vt 0.6875 0.4375
vt 0.6875 0.3125
vt 0.75 0.3125
vn 0 0 -1
vn 1 0 0
vn 0 0 1
vn 0 1 0
vn 0 -1 0
usemtl m_ac27a0c6-363d-9d17-5515-aed1cf1bffc6
f 44/92/23 47/91/23 45/90/23 42/89/23
f 43/96/24 44/95/24 42/94/24 41/93/24
f 48/100/25 43/99/25 41/98/25 46/97/25
f 46/104/26 41/103/26 42/102/26 45/101/26
f 47/108/27 44/107/27 43/106/27 48/105/27
o Short 1
v -0.25 0.0625 0.0625
v -0.25 0.0625 -0.0625
v -0.25 0 0.0625
v -0.25 0 -0.0625
v -0.3125 0.0625 -0.0625
v -0.3125 0.0625 0.0625
v -0.3125 0 -0.0625
v -0.3125 0 0.0625
vt 0.0625 0.1875
vt 0.125 0.1875
vt 0.125 0.125
vt 0.0625 0.125
vt 0.8125 0.9375
vt 0.875 0.9375
vt 0.875 0.875
vt 0.8125 0.875
vt 0.625 0.3125
vt 0.75 0.3125
vt 0.75 0.25
vt 0.625 0.25
vt 0.0625 0.125
vt 0 0.125
vt 0 0.25
vt 0.0625 0.25
vt 0.8125 1
vt 0.75 1
vt 0.75 0.875
vt 0.8125 0.875
vn 0 0 -1
vn 0 0 1
vn -1 0 0
vn 0 1 0
vn 0 -1 0
usemtl m_ac27a0c6-363d-9d17-5515-aed1cf1bffc6
f 52/112/28 55/111/28 53/110/28 50/109/28
f 56/116/29 51/115/29 49/114/29 54/113/29
f 55/120/30 56/119/30 54/118/30 53/117/30
f 54/124/31 49/123/31 50/122/31 53/121/31
f 55/128/32 52/127/32 51/126/32 56/125/32
o Short 1
v 0.0625 0.0625 0.3125
v 0.0625 0.0625 0.25
v 0.0625 0 0.3125
v 0.0625 0 0.25
v -0.0625 0.0625 0.25
v -0.0625 0.0625 0.3125
v -0.0625 0 0.25
v -0.0625 0 0.3125
vt 0.125 0.1875
vt 0.1875 0.1875
vt 0.1875 0.125
vt 0.125 0.125
vt 0.0625 0.25
vt 0.1875 0.25
vt 0.1875 0.1875
vt 0.0625 0.1875
vt 0.1875 0.1875
vt 0.25 0.1875
vt 0.25 0.125
vt 0.1875 0.125
vt 0.875 0.8125
vt 0.75 0.8125
vt 0.75 0.875
vt 0.875 0.875
vt 0.3125 0.25
vt 0.1875 0.25
vt 0.1875 0.1875
vt 0.3125 0.1875
vn 1 0 0
vn 0 0 1
vn -1 0 0
vn 0 1 0
vn 0 -1 0
usemtl m_ac27a0c6-363d-9d17-5515-aed1cf1bffc6
f 59/132/33 60/131/33 58/130/33 57/129/33
f 64/136/34 59/135/34 57/134/34 62/133/34
f 63/140/35 64/139/35 62/138/35 61/137/35
f 62/144/36 57/143/36 58/142/36 61/141/36
f 63/148/37 60/147/37 59/146/37 64/145/37
o Short 1
v 0.0625 0.0625 -0.25
v 0.0625 0.0625 -0.3125
v 0.0625 0 -0.25
v 0.0625 0 -0.3125
v -0.0625 0.0625 -0.3125
v -0.0625 0.0625 -0.25
v -0.0625 0 -0.3125
v -0.0625 0 -0.25
vt 0.75 0.8125
vt 0.875 0.8125
vt 0.875 0.75
vt 0.75 0.75
vt 0.25 0.1875
vt 0.3125 0.1875
vt 0.3125 0.125
vt 0.25 0.125
vt 0.3125 0.1875
vt 0.375 0.1875
vt 0.375 0.125
vt 0.3125 0.125
vt 0.875 0.6875
vt 0.75 0.6875
vt 0.75 0.75
vt 0.875 0.75
vt 0.875 0.6875
vt 0.75 0.6875
vt 0.75 0.625
vt 0.875 0.625
vn 0 0 -1
vn 1 0 0
vn -1 0 0
vn 0 1 0
vn 0 -1 0
usemtl m_ac27a0c6-363d-9d17-5515-aed1cf1bffc6
f 68/152/38 71/151/38 69/150/38 66/149/38
f 67/156/39 68/155/39 66/154/39 65/153/39
f 71/160/40 72/159/40 70/158/40 69/157/40
f 70/164/41 65/163/41 66/162/41 69/161/41
f 71/168/42 68/167/42 67/166/42 72/165/42